<svg width="161" height="31" viewBox="0 0 161 31" fill="none" xmlns="http://www.w3.org/2000/svg">
<g clip-path="url(#clip0_65_370)">
<path d="M5.334 19.7484C4.37267 19.7484 3.542 19.5384 2.842 19.1184C2.15133 18.6891 1.61467 18.0964 1.232 17.3404C0.849333 16.5751 0.658 15.6884 0.658 14.6804C0.658 13.6818 0.849333 12.8044 1.232 12.0484C1.61467 11.2831 2.15133 10.6858 2.842 10.2564C3.542 9.82711 4.37267 9.61244 5.334 9.61244C6.454 9.61244 7.364 9.88311 8.064 10.4244C8.77333 10.9564 9.226 11.7031 9.422 12.6644H8.12C7.97067 12.0578 7.66267 11.5724 7.196 11.2084C6.73867 10.8351 6.118 10.6484 5.334 10.6484C4.634 10.6484 4.02267 10.8118 3.5 11.1384C2.97733 11.4558 2.57133 11.9178 2.282 12.5244C2.002 13.1218 1.862 13.8404 1.862 14.6804C1.862 15.5204 2.002 16.2438 2.282 16.8504C2.57133 17.4478 2.97733 17.9098 3.5 18.2364C4.02267 18.5538 4.634 18.7124 5.334 18.7124C6.118 18.7124 6.73867 18.5351 7.196 18.1804C7.66267 17.8164 7.97067 17.3358 8.12 16.7384H9.422C9.226 17.6811 8.77333 18.4184 8.064 18.9504C7.364 19.4824 6.454 19.7484 5.334 19.7484ZM11.0422 19.5804V12.6364H12.1062L12.2042 13.9664C12.4188 13.5091 12.7455 13.1451 13.1842 12.8744C13.6228 12.6038 14.1642 12.4684 14.8082 12.4684V13.7004H14.4862C14.0755 13.7004 13.6975 13.7751 13.3522 13.9244C13.0068 14.0644 12.7315 14.3071 12.5262 14.6524C12.3208 14.9978 12.2182 15.4738 12.2182 16.0804V19.5804H11.0422ZM18.9903 19.7484C18.3277 19.7484 17.7397 19.5991 17.2263 19.3004C16.713 18.9924 16.307 18.5678 16.0083 18.0264C15.719 17.4851 15.5743 16.8458 15.5743 16.1084C15.5743 15.3804 15.719 14.7458 16.0083 14.2044C16.2977 13.6538 16.699 13.2291 17.2123 12.9304C17.735 12.6224 18.337 12.4684 19.0183 12.4684C19.6903 12.4684 20.269 12.6224 20.7543 12.9304C21.249 13.2291 21.627 13.6258 21.8883 14.1204C22.1497 14.6151 22.2803 15.1471 22.2803 15.7164C22.2803 15.8191 22.2757 15.9218 22.2663 16.0244C22.2663 16.1271 22.2663 16.2438 22.2663 16.3744H16.7363C16.7643 16.9064 16.8857 17.3498 17.1003 17.7044C17.3243 18.0498 17.5997 18.3111 17.9263 18.4884C18.2623 18.6658 18.617 18.7544 18.9903 18.7544C19.4757 18.7544 19.8817 18.6424 20.2083 18.4184C20.535 18.1944 20.773 17.8911 20.9223 17.5084H22.0843C21.8977 18.1524 21.5383 18.6891 21.0063 19.1184C20.4837 19.5384 19.8117 19.7484 18.9903 19.7484ZM18.9903 13.4624C18.4303 13.4624 17.931 13.6351 17.4923 13.9804C17.063 14.3164 16.8157 14.8111 16.7503 15.4644H21.1183C21.0903 14.8391 20.8757 14.3491 20.4743 13.9944C20.073 13.6398 19.5783 13.4624 18.9903 13.4624ZM26.149 19.7484C25.5704 19.7484 25.0897 19.6504 24.707 19.4544C24.3244 19.2584 24.0397 18.9971 23.853 18.6704C23.6664 18.3438 23.573 17.9891 23.573 17.6064C23.573 16.8971 23.8437 16.3511 24.385 15.9684C24.9264 15.5858 25.6637 15.3944 26.597 15.3944H28.473V15.3104C28.473 14.7038 28.3144 14.2464 27.997 13.9384C27.6797 13.6211 27.255 13.4624 26.723 13.4624C26.2657 13.4624 25.869 13.5791 25.533 13.8124C25.2064 14.0364 25.001 14.3678 24.917 14.8064H23.713C23.7597 14.3024 23.9277 13.8778 24.217 13.5324C24.5157 13.1871 24.8844 12.9258 25.323 12.7484C25.7617 12.5618 26.2284 12.4684 26.723 12.4684C27.6937 12.4684 28.4217 12.7298 28.907 13.2524C29.4017 13.7658 29.649 14.4518 29.649 15.3104V19.5804H28.599L28.529 18.3344C28.333 18.7264 28.0437 19.0624 27.661 19.3424C27.2877 19.6131 26.7837 19.7484 26.149 19.7484ZM26.331 18.7544C26.779 18.7544 27.1617 18.6378 27.479 18.4044C27.8057 18.1711 28.053 17.8678 28.221 17.4944C28.389 17.1211 28.473 16.7291 28.473 16.3184V16.3044H26.695C26.0044 16.3044 25.5144 16.4258 25.225 16.6684C24.945 16.9018 24.805 17.1958 24.805 17.5504C24.805 17.9144 24.9357 18.2084 25.197 18.4324C25.4677 18.6471 25.8457 18.7544 26.331 18.7544ZM33.9659 19.5804C33.3312 19.5804 32.8319 19.4264 32.4679 19.1184C32.1039 18.8104 31.9219 18.2551 31.9219 17.4524V13.6304H30.7179V12.6364H31.9219L32.0759 10.9704H33.0979V12.6364H35.1419V13.6304H33.0979V17.4524C33.0979 17.8911 33.1865 18.1898 33.3639 18.3484C33.5412 18.4978 33.8539 18.5724 34.3019 18.5724H35.0299V19.5804H33.9659ZM39.5665 19.7484C38.9038 19.7484 38.3158 19.5991 37.8025 19.3004C37.2892 18.9924 36.8832 18.5678 36.5845 18.0264C36.2952 17.4851 36.1505 16.8458 36.1505 16.1084C36.1505 15.3804 36.2952 14.7458 36.5845 14.2044C36.8738 13.6538 37.2752 13.2291 37.7885 12.9304C38.3112 12.6224 38.9132 12.4684 39.5945 12.4684C40.2665 12.4684 40.8452 12.6224 41.3305 12.9304C41.8252 13.2291 42.2032 13.6258 42.4645 14.1204C42.7258 14.6151 42.8565 15.1471 42.8565 15.7164C42.8565 15.8191 42.8518 15.9218 42.8425 16.0244C42.8425 16.1271 42.8425 16.2438 42.8425 16.3744H37.3125C37.3405 16.9064 37.4618 17.3498 37.6765 17.7044C37.9005 18.0498 38.1758 18.3111 38.5025 18.4884C38.8385 18.6658 39.1932 18.7544 39.5665 18.7544C40.0518 18.7544 40.4578 18.6424 40.7845 18.4184C41.1112 18.1944 41.3492 17.8911 41.4985 17.5084H42.6605C42.4738 18.1524 42.1145 18.6891 41.5825 19.1184C41.0598 19.5384 40.3878 19.7484 39.5665 19.7484ZM39.5665 13.4624C39.0065 13.4624 38.5072 13.6351 38.0685 13.9804C37.6392 14.3164 37.3918 14.8111 37.3265 15.4644H41.6945C41.6665 14.8391 41.4518 14.3491 41.0505 13.9944C40.6492 13.6398 40.1545 13.4624 39.5665 13.4624ZM47.5652 19.7484C46.8746 19.7484 46.2679 19.5898 45.7452 19.2724C45.2319 18.9551 44.8306 18.5211 44.5412 17.9704C44.2612 17.4198 44.1212 16.7944 44.1212 16.0944C44.1212 15.3944 44.2659 14.7738 44.5552 14.2324C44.8446 13.6818 45.2459 13.2524 45.7592 12.9444C46.2726 12.6271 46.8792 12.4684 47.5792 12.4684C48.1486 12.4684 48.6526 12.5851 49.0912 12.8184C49.5299 13.0518 49.8706 13.3784 50.1132 13.7984V9.50044H51.2892V19.5804H50.2252L50.1132 18.4324C49.8892 18.7684 49.5672 19.0718 49.1472 19.3424C48.7272 19.6131 48.1999 19.7484 47.5652 19.7484ZM47.6912 18.7264C48.1579 18.7264 48.5686 18.6191 48.9232 18.4044C49.2872 18.1804 49.5672 17.8724 49.7632 17.4804C49.9686 17.0884 50.0712 16.6311 50.0712 16.1084C50.0712 15.5858 49.9686 15.1284 49.7632 14.7364C49.5672 14.3444 49.2872 14.0411 48.9232 13.8264C48.5686 13.6024 48.1579 13.4904 47.6912 13.4904C47.2339 13.4904 46.8232 13.6024 46.4592 13.8264C46.1046 14.0411 45.8246 14.3444 45.6192 14.7364C45.4232 15.1284 45.3252 15.5858 45.3252 16.1084C45.3252 16.6311 45.4232 17.0884 45.6192 17.4804C45.8246 17.8724 46.1046 18.1804 46.4592 18.4044C46.8232 18.6191 47.2339 18.7264 47.6912 18.7264ZM60.6213 19.7484C60.052 19.7484 59.5433 19.6318 59.0953 19.3984C58.6566 19.1651 58.3206 18.8384 58.0873 18.4184L57.9753 19.5804H56.9113V9.50044H58.0873V13.7844C58.3113 13.4484 58.6286 13.1451 59.0393 12.8744C59.4593 12.6038 59.9913 12.4684 60.6353 12.4684C61.326 12.4684 61.928 12.6271 62.4413 12.9444C62.9546 13.2618 63.3513 13.6958 63.6313 14.2464C63.9206 14.7971 64.0653 15.4224 64.0653 16.1224C64.0653 16.8224 63.9206 17.4478 63.6313 17.9984C63.3513 18.5398 62.95 18.9691 62.4273 19.2864C61.914 19.5944 61.312 19.7484 60.6213 19.7484ZM60.4953 18.7264C60.962 18.7264 61.3726 18.6191 61.7273 18.4044C62.082 18.1804 62.362 17.8724 62.5673 17.4804C62.7726 17.0884 62.8753 16.6311 62.8753 16.1084C62.8753 15.5858 62.7726 15.1284 62.5673 14.7364C62.362 14.3444 62.082 14.0411 61.7273 13.8264C61.3726 13.6024 60.962 13.4904 60.4953 13.4904C60.0286 13.4904 59.618 13.6024 59.2633 13.8264C58.9086 14.0411 58.6286 14.3444 58.4233 14.7364C58.218 15.1284 58.1153 15.5858 58.1153 16.1084C58.1153 16.6311 58.218 17.0884 58.4233 17.4804C58.6286 17.8724 58.9086 18.1804 59.2633 18.4044C59.618 18.6191 60.0286 18.7264 60.4953 18.7264ZM65.8978 22.6604L67.6198 18.9084H67.2138L64.4558 12.6364H65.7298L68.0258 18.0404L70.4618 12.6364H71.6798L67.1298 22.6604H65.8978Z" fill="#969696"/>
<g clip-path="url(#clip1_65_370)">
<path d="M82 15.0604L82.0011 15.5114H82.0063C82.1154 19.2301 83.5821 22.7502 86.1535 25.4503C88.8225 28.2529 92.4155 29.9062 96.271 30.1061L97.3259 30.1608V30.1264H103.723C105.968 30.1264 108.078 29.2525 109.665 27.6651C111.094 26.2363 111.953 24.3596 112.102 22.3563H112.126V0H82V15.0604ZM84.0061 15.0618C84.0064 11.6942 85.2851 8.49748 87.6065 6.06001C88.4479 5.17656 89.4039 4.41656 90.4487 3.8014L91.3694 3.3083C92.6172 2.70296 93.945 2.3042 95.3202 2.12113V28.005C93.9054 27.8166 92.5432 27.4014 91.2669 26.7687C89.9002 26.0911 88.6688 25.1817 87.6065 24.0664C85.2851 21.629 84.0064 18.4318 84.0061 15.0618ZM103.723 14.0602C101.934 14.0602 100.308 13.5081 99.1454 12.5062C97.9551 11.4803 97.3263 10.0617 97.3263 8.40314C97.3263 4.87564 100.196 2.00609 103.723 2.00609C107.251 2.00609 110.12 4.87564 110.12 8.40314V16.5839C109.959 16.4152 109.789 16.2539 109.611 16.1006C108.084 14.7847 105.993 14.0598 103.723 14.0598V14.0602ZM103.723 16.0663C105.512 16.0663 107.138 16.6183 108.301 17.6206C109.491 18.6465 110.12 20.0651 110.12 21.7236C110.12 25.2511 107.251 28.1207 103.723 28.1207V28.3837L103.722 28.1207C100.195 28.1196 97.3263 25.2501 97.3263 21.7236V13.5429C97.4879 13.7116 97.658 13.8729 97.8358 14.0262C99.3629 15.342 101.453 16.067 103.723 16.067V16.0663Z" fill="#191919"/>
<path d="M119.433 9.05171H120.315V3.94705H122.131V3.17126H117.608V3.94705H119.433V9.05171Z" fill="#191919"/>
<path d="M123.929 6.4245H127.183V9.05171H128.064V3.17126H127.183V5.63995H123.929V3.17126H123.048V9.05171H123.929V6.4245Z" fill="#191919"/>
<path d="M133.318 8.27592H130.25V6.44203H133.257V5.66625H130.25V3.94705H133.318V3.17126H129.369V9.05171H133.318V8.27592Z" fill="#191919"/>
<path d="M122.016 15.73C121.822 16.1971 121.32 16.585 120.755 16.585C119.794 16.585 119.116 15.8443 119.116 14.8837C119.116 13.9231 119.795 13.1824 120.755 13.1824C121.32 13.1824 121.822 13.5703 122.016 14.0374L123.321 13.4114C122.942 12.6444 122.175 11.8423 120.755 11.8423C118.948 11.8423 117.573 13.0677 117.573 14.8837C117.573 16.6997 118.948 17.9251 120.755 17.9251C122.175 17.9251 122.942 17.0964 123.321 16.3469L122.016 15.7296V15.73Z" fill="#191919"/>
<path d="M123.973 11.9391V17.8195H125.49V15.8447H126.266L127.253 17.8195H128.99L127.79 15.6595C128.346 15.4655 128.963 14.9188 128.963 13.8961C128.963 12.8029 128.222 11.9391 126.918 11.9391H123.973H123.973ZM127.42 13.8873C127.42 14.3015 127.094 14.5221 126.689 14.5221H125.49V13.2613H126.689C127.094 13.2613 127.42 13.4815 127.42 13.8873Z" fill="#191919"/>
<path d="M129.801 17.8195H134.112V16.497H131.317V15.501H134.05V14.1784H131.317V13.2616H134.112V11.9391H129.801V17.8195Z" fill="#191919"/>
<path d="M136.377 16.9733H138.696L138.987 17.8195H140.706L138.493 11.9391H136.58L134.367 17.8195H136.087L136.377 16.9733ZM137.541 13.438L138.282 15.6507H136.792L137.541 13.438H137.541Z" fill="#191919"/>
<path d="M141.905 17.8195H143.421V13.2616H145.061V11.9391H140.256V13.2616H141.905V17.8195Z" fill="#191919"/>
<path d="M147.3 11.9391H145.784V17.8195H147.3V11.9391Z" fill="#191919"/>
<path d="M151.858 17.8195L154.071 11.9391H152.352L150.906 16.1796L149.451 11.9391H147.732L149.945 17.8195H151.858Z" fill="#191919"/>
<path d="M158.814 16.497H156.019V15.501H158.752V14.1784H156.019V13.2616H158.814V11.9391H154.503V17.8195H158.814V16.497Z" fill="#191919"/>
<path d="M119.186 22.3644C119.186 22.1087 119.38 21.959 119.821 21.959C120.403 21.959 121.047 22.1617 121.54 22.5762L122.369 21.4389C121.743 20.9012 120.923 20.6189 119.98 20.6189C118.473 20.6189 117.644 21.5006 117.644 22.4879C117.644 24.7535 120.968 24.1099 120.968 24.8857C120.968 25.1768 120.65 25.3529 120.139 25.3529C119.328 25.3529 118.675 25.0004 118.252 24.5771L117.45 25.7583C118.041 26.3138 118.869 26.6929 120.06 26.6929C121.638 26.6929 122.51 25.9084 122.51 24.7268C122.51 22.5405 119.187 23.0869 119.187 22.3641L119.186 22.3644Z" fill="#191919"/>
<path d="M126.063 20.6104C124.264 20.6104 122.915 21.8624 122.915 23.6518C122.915 25.4411 124.264 26.6932 126.063 26.6932C127.861 26.6932 129.201 25.4411 129.201 23.6518C129.201 21.8624 127.861 20.6104 126.063 20.6104ZM126.063 25.3534C125.093 25.3534 124.458 24.6039 124.458 23.6518C124.458 22.6996 125.093 21.9504 126.063 21.9504C127.033 21.9504 127.659 22.6911 127.659 23.6518C127.659 24.6124 127.033 25.3534 126.063 25.3534Z" fill="#191919"/>
<path d="M131.458 20.707H129.942V26.5875H133.821V25.2649H131.458V20.707Z" fill="#191919"/>
<path d="M138.423 24.1542C138.423 24.8507 137.999 25.3533 137.189 25.3533C136.378 25.3533 135.946 24.8507 135.946 24.1542V20.707H134.403V24.2068C134.403 25.6528 135.302 26.693 137.189 26.693C139.075 26.693 139.957 25.6616 139.957 24.1981V20.707H138.423V24.1542Z" fill="#191919"/>
<path d="M140.68 22.0296H142.328V26.5875H143.844V22.0296H145.484V20.707H140.68V22.0296Z" fill="#191919"/>
<path d="M147.724 20.707H146.207V26.5875H147.724V20.707Z" fill="#191919"/>
<path d="M151.629 20.6104C149.83 20.6104 148.482 21.8624 148.482 23.6518C148.482 25.4411 149.83 26.6932 151.629 26.6932C153.427 26.6932 154.767 25.4411 154.767 23.6518C154.767 21.8624 153.427 20.6104 151.629 20.6104ZM151.629 25.3534C150.659 25.3534 150.024 24.6039 150.024 23.6518C150.024 22.6996 150.659 21.9504 151.629 21.9504C152.599 21.9504 153.225 22.6911 153.225 23.6518C153.225 24.6124 152.599 25.3534 151.629 25.3534Z" fill="#191919"/>
<path d="M159.475 20.707V23.9427L157.095 20.707H155.534V26.5875H157.051V23.1845L159.537 26.5875H161V20.707H159.475Z" fill="#191919"/>
</g>
</g>
<defs>
<clipPath id="clip0_65_370">
<rect width="161" height="30.1608" fill="white"/>
</clipPath>
<clipPath id="clip1_65_370">
<rect width="79" height="30.1608" fill="white" transform="translate(82)"/>
</clipPath>
</defs>
</svg>
