<svg width="129" height="50" viewBox="0 0 129 50" fill="none" xmlns="http://www.w3.org/2000/svg">
<g clip-path="url(#clip0_2_3)">
<path d="M0 24.9656L0.00153571 25.7141H0.01075C0.188893 31.8781 2.58307 37.7141 6.78018 42.1906C11.1385 46.8359 17.0034 49.5766 23.2983 49.9078L25.0214 49.9984V49.9422H35.4643C39.1285 49.9422 42.5746 48.4937 45.1654 45.8609C47.4981 43.4937 48.9002 40.3812 49.1444 37.0609H49.1828V0H0V24.9656ZM3.27568 24.9687C3.27568 19.3859 5.36271 14.0859 9.15286 10.0453C10.5273 8.58125 12.0876 7.32187 13.7938 6.30156L15.2957 5.48437C17.3336 4.48125 19.5005 3.82031 21.7457 3.51562V46.425C19.436 46.1125 17.2123 45.425 15.1283 44.375C12.8985 43.2516 10.8867 41.7453 9.15286 39.8953C5.36271 35.8547 3.27568 30.5547 3.27568 24.9687ZM35.4643 23.3078C32.5433 23.3078 29.8896 22.3937 27.9915 20.7312C26.0472 19.0312 25.0214 16.6797 25.0214 13.9297C25.0214 8.08281 29.7053 3.325 35.4643 3.325C41.2232 3.325 45.9086 8.08281 45.9086 13.9297V27.4922C45.6445 27.2125 45.3665 26.9453 45.0763 26.6906C42.5838 24.5094 39.1699 23.3078 35.4643 23.3078ZM35.4643 26.6344C38.3852 26.6344 41.0404 27.5484 42.9386 29.2109C44.8812 30.9109 45.9086 33.2625 45.9086 36.0125C45.9086 41.8594 41.2232 46.6172 35.4643 46.6172V47.0531L35.4627 46.6172C29.7053 46.6156 25.0214 41.8578 25.0214 36.0125V22.45C25.2855 22.7297 25.5635 22.9984 25.8537 23.2516C28.3462 25.4328 31.7586 26.6344 35.4643 26.6344ZM61.1122 15.0047H62.5527V6.54375H65.5166V5.25625H58.1329V6.54375H61.1122V15.0047ZM68.4529 10.65H73.7634V15.0047H75.2024V5.25625H73.7634V9.35H68.4529V5.25625H67.014V15.0047H68.4529V10.65ZM83.7809 13.7187H78.7729V10.6797H83.6811V9.39375H78.7729V6.54375H83.7809V5.25625H77.3324V15.0047H83.7809V13.7187ZM65.3293 26.0766C65.0129 26.85 64.1929 27.4938 63.2714 27.4938C61.7019 27.4938 60.5947 26.2656 60.5947 24.6734C60.5947 23.0813 61.7035 21.8531 63.2714 21.8531C64.1929 21.8531 65.0129 22.4953 65.3293 23.2703L67.4593 22.2328C66.8404 20.9609 65.5888 19.6313 63.2714 19.6313C60.3213 19.6313 58.0746 21.6625 58.0746 24.6734C58.0746 27.6844 60.3198 29.7156 63.2714 29.7156C65.5888 29.7156 66.8404 28.3406 67.4593 27.0984L65.3293 26.0766ZM68.5251 19.7922V29.5406H71.0007V26.2656H72.2676L73.8786 29.5406H76.7135L74.757 25.9594C75.6631 25.6375 76.6705 24.7313 76.6705 23.0359C76.6705 21.2234 75.4619 19.7922 73.3319 19.7922H68.5251ZM74.152 23.0219C74.152 23.7078 73.6206 24.0734 72.9587 24.0734H71.0007V21.9844H72.9587C73.6206 21.9844 74.152 22.3484 74.152 23.0219ZM78.0389 29.5406H85.077V27.3484H80.5129V25.6969H84.9757V23.5047H80.5129V21.9844H85.077V19.7922H78.0389V29.5406ZM88.775 28.1375H92.5606L93.0351 29.5406H95.8424L92.2289 19.7922H89.1067L85.4932 29.5406H88.3005L88.775 28.1375ZM90.6747 22.2766L91.8849 25.9453H89.4523L90.6747 22.2766ZM97.7989 29.5406H100.274V21.9844H102.953V19.7922H95.1083V21.9844H97.7989V29.5406ZM106.608 19.7922H104.132V29.5406H106.608V19.7922ZM114.048 29.5406L117.66 19.7922H114.855L112.494 26.8219L110.12 19.7922H107.313L110.925 29.5406H114.048ZM125.405 27.3484H120.841V25.6969H125.304V23.5047H120.841V21.9844H125.405V19.7922H118.367V29.5406H125.405V27.3484ZM60.7099 37.075C60.7099 36.65 61.0262 36.4016 61.7465 36.4016C62.6955 36.4016 63.746 36.7391 64.5522 37.425L65.9052 35.5406C64.8839 34.6484 63.5448 34.1812 62.006 34.1812C59.5442 34.1812 58.1913 35.6422 58.1913 37.2797C58.1913 41.0344 63.617 39.9687 63.617 41.2547C63.617 41.7359 63.0994 42.0281 62.264 42.0281C60.9402 42.0281 59.876 41.4438 59.1849 40.7422L57.8749 42.7C58.8394 43.6219 60.1923 44.25 62.135 44.25C64.7119 44.25 66.1371 42.95 66.1371 40.9906C66.1371 37.3656 60.7099 38.2719 60.7099 37.0734V37.075ZM71.9359 34.1656C68.9996 34.1656 66.7974 36.2422 66.7974 39.2078C66.7974 42.175 68.9996 44.25 71.9359 44.25C74.8722 44.25 77.0606 42.175 77.0606 39.2078C77.0606 36.2422 74.8722 34.1656 71.9359 34.1656ZM71.9359 42.0297C70.3526 42.0297 69.316 40.7859 69.316 39.2078C69.316 37.6297 70.3526 36.3875 71.9359 36.3875C73.5192 36.3875 74.5405 37.6156 74.5405 39.2078C74.5405 40.8 73.5192 42.0297 71.9359 42.0297ZM80.7448 34.3266H78.2692V44.075H84.601V41.8828H80.7448V34.3266ZM92.1152 40.0406C92.1152 41.1953 91.4241 42.0297 90.1004 42.0297C88.7766 42.0297 88.0701 41.1953 88.0701 40.0406V34.3266H85.5516V40.1281C85.5516 42.525 87.0197 44.25 90.1004 44.25C93.1795 44.25 94.6184 42.5406 94.6184 40.1141V34.3266H92.1152V40.0406ZM95.7994 36.5187H98.49V44.075H100.966V36.5187H103.644V34.3266H95.7994V36.5187ZM107.299 34.3266H104.823V44.075H107.299V34.3266ZM113.675 34.1656C110.739 34.1656 108.537 36.2422 108.537 39.2078C108.537 42.175 110.739 44.25 113.675 44.25C116.611 44.25 118.798 42.175 118.798 39.2078C118.798 36.2422 116.611 34.1656 113.675 34.1656ZM113.675 42.0297C112.092 42.0297 111.055 40.7859 111.055 39.2078C111.055 37.6297 112.092 36.3875 113.675 36.3875C115.258 36.3875 116.28 37.6156 116.28 39.2078C116.28 40.8 115.258 42.0297 113.675 42.0297ZM126.484 34.3266V39.6906L122.598 34.3266H120.05V44.075H122.525V38.4344L126.584 44.075H128.974V34.3266H126.484Z" fill="#F5F5F5"/>
</g>
<defs>
<clipPath id="clip0_2_3">
<rect width="129" height="50" fill="white"/>
</clipPath>
</defs>
</svg>
